# xmcd CD database file
#
# Track frame offsets:
#	150
#	32737
#	60749
#	93370
#	114888
#	136426
#	161091
#	190012
#	234380
#
# Disc length: 3697 seconds
#
# Revision: 0
# Processed by: cddbd v1.5.2PL0 Copyright (c) Steve Scherf et al.
# Submitted via: CDex 1.70beta2
#
DISCID=6e0e6f09
DTITLE=Various Artist - Jazz Roads CD166 - Swing - Ben Webster Vol.8
DYEAR=2006
DGENRE=Jazz
TTITLE0=Art Tatum and Ben Webster - All The Things You Are
TTITLE1=Art Tatum and Ben Webster - My One And Only Love
TTITLE2=Art Tatum and Ben Webster - My Ideal
TTITLE3=Art Tatum and Ben Webster - Gone With The Wind
TTITLE4=Art Tatum and Ben Webster - Have You Met Miss Jones
TTITLE5=Art Tatum and Ben Webster - Night And Day
TTITLE6=Art Tatum and Ben Webster - Where Or When
TTITLE7=Barney Kessel And His All Stars - Tiger Rag
TTITLE8=Barney Kessel And His All Stars - Jersey Bounce
EXTD=YEAR: 2006
EXTT0=
EXTT1=
EXTT2=
EXTT3=
EXTT4=
EXTT5=
EXTT6=
EXTT7=
EXTT8=
PLAYORDER=
